<mxfile host="app.diagrams.net" modified="2024-04-20T18:57:15.080Z" agent="Mozilla/5.0 (Windows NT 10.0; Win64; x64) AppleWebKit/537.36 (KHTML, like Gecko) Chrome/114.0.0.0 Safari/537.36" etag="DxZfyDI2HzEx6CDUoqv9" version="24.2.7" type="github">
  <diagram id="C5RBs43oDa-KdzZeNtuy" name="Page-1">
    <mxGraphModel dx="1891" dy="1073" grid="1" gridSize="10" guides="1" tooltips="1" connect="1" arrows="1" fold="1" page="1" pageScale="1" pageWidth="827" pageHeight="1169" math="0" shadow="0">
      <root>
        <mxCell id="WIyWlLk6GJQsqaUBKTNV-0" />
        <mxCell id="WIyWlLk6GJQsqaUBKTNV-1" parent="WIyWlLk6GJQsqaUBKTNV-0" />
        <mxCell id="ofQ0ZVTdMToJ-DaEBlZL-5" value="" style="edgeStyle=orthogonalEdgeStyle;rounded=0;orthogonalLoop=1;jettySize=auto;html=1;" edge="1" parent="WIyWlLk6GJQsqaUBKTNV-1" source="WIyWlLk6GJQsqaUBKTNV-7" target="ofQ0ZVTdMToJ-DaEBlZL-2">
          <mxGeometry relative="1" as="geometry" />
        </mxCell>
        <mxCell id="WIyWlLk6GJQsqaUBKTNV-7" value="Active" style="rounded=1;whiteSpace=wrap;html=1;fontSize=12;glass=0;strokeWidth=1;shadow=0;" parent="WIyWlLk6GJQsqaUBKTNV-1" vertex="1">
          <mxGeometry x="200" y="110" width="120" height="40" as="geometry" />
        </mxCell>
        <mxCell id="ofQ0ZVTdMToJ-DaEBlZL-1" style="edgeStyle=orthogonalEdgeStyle;rounded=0;orthogonalLoop=1;jettySize=auto;html=1;entryX=0;entryY=0.5;entryDx=0;entryDy=0;" edge="1" parent="WIyWlLk6GJQsqaUBKTNV-1" source="ofQ0ZVTdMToJ-DaEBlZL-0" target="WIyWlLk6GJQsqaUBKTNV-7">
          <mxGeometry relative="1" as="geometry" />
        </mxCell>
        <mxCell id="ofQ0ZVTdMToJ-DaEBlZL-0" value="IDLE" style="ellipse;whiteSpace=wrap;html=1;" vertex="1" parent="WIyWlLk6GJQsqaUBKTNV-1">
          <mxGeometry x="10" y="90" width="120" height="80" as="geometry" />
        </mxCell>
        <mxCell id="ofQ0ZVTdMToJ-DaEBlZL-10" style="edgeStyle=orthogonalEdgeStyle;rounded=0;orthogonalLoop=1;jettySize=auto;html=1;entryX=0;entryY=0.5;entryDx=0;entryDy=0;" edge="1" parent="WIyWlLk6GJQsqaUBKTNV-1" source="ofQ0ZVTdMToJ-DaEBlZL-2" target="ofQ0ZVTdMToJ-DaEBlZL-4">
          <mxGeometry relative="1" as="geometry" />
        </mxCell>
        <mxCell id="ofQ0ZVTdMToJ-DaEBlZL-2" value="ARdelay_1" style="ellipse;whiteSpace=wrap;html=1;" vertex="1" parent="WIyWlLk6GJQsqaUBKTNV-1">
          <mxGeometry x="390" y="90" width="100" height="80" as="geometry" />
        </mxCell>
        <mxCell id="ofQ0ZVTdMToJ-DaEBlZL-15" value="" style="edgeStyle=orthogonalEdgeStyle;rounded=0;orthogonalLoop=1;jettySize=auto;html=1;" edge="1" parent="WIyWlLk6GJQsqaUBKTNV-1" source="ofQ0ZVTdMToJ-DaEBlZL-4" target="ofQ0ZVTdMToJ-DaEBlZL-14">
          <mxGeometry relative="1" as="geometry" />
        </mxCell>
        <mxCell id="ofQ0ZVTdMToJ-DaEBlZL-4" value="ARdelay_2" style="ellipse;whiteSpace=wrap;html=1;" vertex="1" parent="WIyWlLk6GJQsqaUBKTNV-1">
          <mxGeometry x="600" y="90" width="120" height="80" as="geometry" />
        </mxCell>
        <mxCell id="ofQ0ZVTdMToJ-DaEBlZL-7" value="" style="endArrow=classic;html=1;rounded=0;exitX=0.283;exitY=0.038;exitDx=0;exitDy=0;exitPerimeter=0;entryX=0.75;entryY=0;entryDx=0;entryDy=0;entryPerimeter=0;" edge="1" parent="WIyWlLk6GJQsqaUBKTNV-1" source="ofQ0ZVTdMToJ-DaEBlZL-0" target="ofQ0ZVTdMToJ-DaEBlZL-0">
          <mxGeometry width="50" height="50" relative="1" as="geometry">
            <mxPoint x="45" y="80" as="sourcePoint" />
            <mxPoint x="110" y="50" as="targetPoint" />
            <Array as="points">
              <mxPoint x="70" y="30" />
            </Array>
          </mxGeometry>
        </mxCell>
        <mxCell id="ofQ0ZVTdMToJ-DaEBlZL-8" value="R_req# = 1" style="rounded=0;whiteSpace=wrap;html=1;" vertex="1" parent="WIyWlLk6GJQsqaUBKTNV-1">
          <mxGeometry x="50" y="30" width="80" height="30" as="geometry" />
        </mxCell>
        <mxCell id="ofQ0ZVTdMToJ-DaEBlZL-9" value="R_req# = 0&lt;div&gt;&amp;amp;&amp;amp; R_req# = 1&lt;/div&gt;" style="rounded=0;whiteSpace=wrap;html=1;" vertex="1" parent="WIyWlLk6GJQsqaUBKTNV-1">
          <mxGeometry x="110" y="150" width="90" height="40" as="geometry" />
        </mxCell>
        <mxCell id="ofQ0ZVTdMToJ-DaEBlZL-11" value="Cmd: Active" style="ellipse;shape=cloud;whiteSpace=wrap;html=1;" vertex="1" parent="WIyWlLk6GJQsqaUBKTNV-1">
          <mxGeometry x="220" y="50" width="100" height="60" as="geometry" />
        </mxCell>
        <mxCell id="ofQ0ZVTdMToJ-DaEBlZL-12" value="Cmd: NOP" style="ellipse;shape=cloud;whiteSpace=wrap;html=1;" vertex="1" parent="WIyWlLk6GJQsqaUBKTNV-1">
          <mxGeometry x="400" y="30" width="100" height="60" as="geometry" />
        </mxCell>
        <mxCell id="ofQ0ZVTdMToJ-DaEBlZL-13" value="Cmd: NOP" style="ellipse;shape=cloud;whiteSpace=wrap;html=1;" vertex="1" parent="WIyWlLk6GJQsqaUBKTNV-1">
          <mxGeometry x="610" y="30" width="100" height="60" as="geometry" />
        </mxCell>
        <mxCell id="ofQ0ZVTdMToJ-DaEBlZL-14" value="Read" style="rounded=1;whiteSpace=wrap;html=1;fontSize=12;glass=0;strokeWidth=1;shadow=0;" vertex="1" parent="WIyWlLk6GJQsqaUBKTNV-1">
          <mxGeometry x="620" y="240" width="120" height="40" as="geometry" />
        </mxCell>
        <mxCell id="ofQ0ZVTdMToJ-DaEBlZL-16" value="Cmd: Read" style="ellipse;shape=cloud;whiteSpace=wrap;html=1;" vertex="1" parent="WIyWlLk6GJQsqaUBKTNV-1">
          <mxGeometry x="650" y="280" width="100" height="60" as="geometry" />
        </mxCell>
      </root>
    </mxGraphModel>
  </diagram>
</mxfile>
